<?xml version="1.0" encoding="UTF-8" standalone="no"?>
<!-- Created with Inkscape (http://www.inkscape.org/) -->

<svg
   xmlns:dc="http://purl.org/dc/elements/1.1/"
   xmlns:cc="http://creativecommons.org/ns#"
   xmlns:rdf="http://www.w3.org/1999/02/22-rdf-syntax-ns#"
   xmlns:svg="http://www.w3.org/2000/svg"
   xmlns="http://www.w3.org/2000/svg"
   xmlns:xlink="http://www.w3.org/1999/xlink"
   xmlns:sodipodi="http://sodipodi.sourceforge.net/DTD/sodipodi-0.dtd"
   xmlns:inkscape="http://www.inkscape.org/namespaces/inkscape"
   width="529.07715"
   height="529.07715"
   viewBox="0 0 139.985 139.985"
   version="1.1"
   id="svg8"
   sodipodi:docname="logo1.svg"
   inkscape:version="0.92.3 (2405546, 2018-03-11)">
  <defs
     id="defs2">
    <linearGradient
       inkscape:collect="always"
       id="linearGradient862">
      <stop
         style="stop-color:#0b258f;stop-opacity:1;"
         offset="0"
         id="stop858" />
      <stop
         style="stop-color:#0b258f;stop-opacity:0;"
         offset="1"
         id="stop860" />
    </linearGradient>
    <linearGradient
       inkscape:collect="always"
       xlink:href="#linearGradient862"
       id="linearGradient864-9"
       x1="856.09497"
       y1="735.67114"
       x2="623.26556"
       y2="498.83026"
       gradientUnits="userSpaceOnUse"
       gradientTransform="matrix(1.0000012,0,0,1.0000024,114.20909,-51.689235)" />
    <linearGradient
       inkscape:collect="always"
       xlink:href="#linearGradient862"
       id="linearGradient865"
       gradientUnits="userSpaceOnUse"
       gradientTransform="matrix(1.0000012,0,0,1.0000024,895.13108,482.37339)"
       x1="856.09497"
       y1="735.67114"
       x2="623.26556"
       y2="498.83026" />
  </defs>
  <sodipodi:namedview
     id="base"
     pagecolor="#ffffff"
     bordercolor="#666666"
     borderopacity="1.0"
     inkscape:pageopacity="0.0"
     inkscape:pageshadow="2"
     inkscape:zoom="0.63923073"
     inkscape:cx="222.86633"
     inkscape:cy="377.33323"
     inkscape:document-units="mm"
     inkscape:current-layer="layer1"
     showgrid="false"
     inkscape:window-width="1920"
     inkscape:window-height="1001"
     inkscape:window-x="-9"
     inkscape:window-y="-9"
     inkscape:window-maximized="1"
     showborder="true"
     units="px" />
  <metadata
     id="metadata5">
    <rdf:RDF>
      <cc:Work
         rdf:about="">
        <dc:format>image/svg+xml</dc:format>
        <dc:type
           rdf:resource="http://purl.org/dc/dcmitype/StillImage" />
        <dc:title />
      </cc:Work>
    </rdf:RDF>
  </metadata>
  <g
     inkscape:label="Layer 1"
     inkscape:groupmode="layer"
     id="layer1"
     transform="translate(0,-157.01498)">
    <path
       style="opacity:1;fill:#4d4d4d;fill-opacity:1;fill-rule:nonzero;stroke:none;stroke-width:5;stroke-miterlimit:4;stroke-dasharray:none;stroke-dashoffset:0;stroke-opacity:1"
       d="M 84.751953 0 C 37.799608 0 9.4739031e-015 37.799608 0 84.751953 L 0 444.32617 C -1.8947806e-014 491.27852 37.799608 529.07617 84.751953 529.07617 L 444.32617 529.07617 C 491.27852 529.07617 529.07617 491.27852 529.07617 444.32617 L 529.07617 84.751953 C 529.07617 37.799608 491.27852 9.4739031e-015 444.32617 0 L 84.751953 0 z M 318.81836 82.224609 L 346.5332 82.224609 L 346.5332 173.84766 L 389.9668 125.03711 L 419.54297 125.03711 L 379.21094 170.95312 L 422.4375 233.20703 L 392.86133 233.20703 L 361.42383 186.25781 L 346.5332 200.94336 L 346.5332 233.20703 L 318.81836 233.20703 L 318.81836 82.224609 z M 434.34961 82.224609 L 462.06445 82.224609 L 462.06445 109.73242 L 434.34961 109.73242 L 434.34961 82.224609 z M 67.011719 86.361328 L 131.95703 86.361328 C 138.71338 86.361328 144.91704 87.807548 150.57031 90.703125 C 156.36147 93.460817 161.32635 97.184967 165.46289 101.87305 C 169.59943 106.42324 172.83956 111.66276 175.18359 117.5918 C 177.52763 123.38295 178.69922 129.24284 178.69922 135.17188 C 178.69922 144.6859 176.2869 153.373 171.46094 161.23242 C 166.77286 168.95396 160.3598 174.53726 152.22461 177.98438 L 185.73047 233.20703 L 153.67383 233.20703 L 123.68359 183.98242 L 95.554688 183.98242 L 95.554688 233.20703 L 67.011719 233.20703 L 67.011719 86.361328 z M 95.554688 111.38672 L 95.554688 158.95703 L 131.33594 158.95703 C 133.95575 158.95703 136.36807 158.33666 138.57422 157.0957 C 140.91826 155.85474 142.91765 154.19913 144.57227 152.13086 C 146.22688 149.92471 147.53676 147.37409 148.50195 144.47852 C 149.46715 141.58294 149.94922 138.4811 149.94922 135.17188 C 149.94922 131.72476 149.398 128.55378 148.29492 125.6582 C 147.19185 122.76263 145.67648 120.27921 143.74609 118.21094 C 141.95359 116.00478 139.81591 114.35112 137.33398 113.24805 C 134.98995 112.00709 132.57567 111.38672 130.09375 111.38672 L 95.554688 111.38672 z M 243.69336 122.96875 C 259.27432 122.96875 271.33983 126.82924 279.88867 134.55078 C 288.5754 142.13443 292.91992 153.16469 292.91992 167.64258 L 292.91992 201.35547 C 292.91992 204.25105 293.402 206.31959 294.36719 207.56055 C 295.47026 208.80151 297.19307 209.49102 299.53711 209.62891 L 299.53711 233.20703 C 294.84903 234.17222 290.7811 234.65625 287.33398 234.65625 C 282.09437 234.65625 278.02839 233.48271 275.13281 231.13867 C 272.37512 228.79463 270.65036 225.6928 269.96094 221.83203 L 269.3418 215.83398 C 264.51584 222.17668 258.654 227.00327 251.75977 230.3125 C 244.86554 233.62173 237.49028 235.27539 229.63086 235.27539 C 224.39124 235.27539 219.4955 234.44758 214.94531 232.79297 C 210.39512 231.00047 206.46548 228.58815 203.15625 225.55469 C 199.84702 222.38334 197.22725 218.73029 195.29688 214.59375 C 193.50438 210.45721 192.60742 205.90721 192.60742 200.94336 C 192.60742 195.84163 193.71182 191.15333 195.91797 186.87891 C 198.26201 182.4666 201.43299 178.74245 205.43164 175.70898 C 209.56818 172.67552 214.46197 170.33235 220.11523 168.67773 C 225.7685 166.88523 231.97412 165.98828 238.73047 165.98828 C 243.55643 165.98828 248.24473 166.40316 252.79492 167.23047 C 257.483 168.05778 261.62008 169.22936 265.20508 170.74609 L 265.20508 164.54102 C 265.20508 157.37102 263.13654 151.85491 259 147.99414 C 255.00135 144.13337 249.00317 142.20313 241.00586 142.20312 C 235.21471 142.20312 229.56031 143.23837 224.04492 145.30664 C 218.52954 147.37491 212.87709 150.4076 207.08594 154.40625 L 198.60547 136.82617 C 212.53181 127.5879 227.56086 122.96875 243.69336 122.96875 z M 434.34961 124.83008 L 462.06445 124.83008 L 462.06445 233.20703 L 434.34961 233.20703 L 434.34961 124.83008 z M 243.28125 181.5 C 236.11125 181.5 230.25136 183.15561 225.70117 186.46484 C 221.15098 189.63619 218.875 193.70412 218.875 198.66797 C 218.875 203.35605 220.66695 207.28569 224.25195 210.45703 C 227.83695 213.49049 232.25062 215.00586 237.49023 215.00586 C 242.17831 215.00586 246.59002 214.18001 250.72656 212.52539 C 255.00099 210.87078 258.31026 208.66394 260.6543 205.90625 C 263.68776 203.56221 265.20508 200.94244 265.20508 198.04688 L 265.20508 185.63672 C 261.89585 184.39576 258.30999 183.43161 254.44922 182.74219 C 250.58845 181.91488 246.86625 181.5 243.28125 181.5 z M 31.960938 288.93945 L 60.232422 288.93945 L 97.667969 393.64258 L 134.71289 288.93945 L 162.98438 288.93945 L 108.97656 427.37305 L 86.359375 427.37305 L 31.960938 288.93945 z M 210.23242 323.45117 C 218.55142 323.45117 225.96172 324.88058 232.46094 327.74023 C 239.09014 330.59989 244.67906 334.43472 249.22852 339.24414 C 253.90795 344.05356 257.41809 349.64248 259.75781 356.01172 C 262.22752 362.38095 263.46094 369.01122 263.46094 375.90039 C 263.46094 377.59019 263.39756 379.21362 263.26758 380.77344 C 263.26758 382.33325 263.13692 383.63395 262.87695 384.67383 L 183.91211 384.67383 C 184.30206 388.70334 185.27612 392.27686 186.83594 395.39648 C 188.39575 398.51611 190.41116 401.18089 192.88086 403.39062 C 195.35056 405.60036 198.14405 407.29108 201.26367 408.46094 C 204.3833 409.6308 207.63408 410.21484 211.01367 410.21484 C 216.21305 410.21484 221.08726 408.98142 225.63672 406.51172 C 230.31616 403.91203 233.49966 400.53255 235.18945 396.37305 L 257.61328 402.61133 C 253.84373 410.41039 247.79947 416.84467 239.48047 421.91406 C 231.29145 426.85347 221.47574 429.32422 210.03711 429.32422 C 201.84809 429.32422 194.43975 427.95819 187.81055 425.22852 C 181.18134 422.36886 175.52709 418.53403 170.84766 413.72461 C 166.16822 408.91519 162.52938 403.32627 159.92969 396.95703 C 157.45998 390.5878 156.22461 383.89416 156.22461 376.875 C 156.22461 369.59587 157.45998 362.77158 159.92969 356.40234 C 162.39939 349.90312 165.97291 344.24888 170.65234 339.43945 C 175.33178 334.50005 180.98603 330.59989 187.61523 327.74023 C 194.37442 324.88058 201.91342 323.45117 210.23242 323.45117 z M 321.09766 323.45117 C 329.0267 323.45117 335.98166 325.27059 341.96094 328.91016 C 347.94022 332.41974 352.87976 337.16525 356.7793 343.14453 L 356.7793 325.20508 L 379.5918 325.20508 L 379.5918 422.5 C 379.5918 430.0391 378.16239 436.79806 375.30273 442.77734 C 372.44308 448.75663 368.47759 453.82487 363.4082 457.98438 C 358.4688 462.14388 352.48986 465.32933 345.4707 467.53906 C 338.58153 469.7488 331.04253 470.85352 322.85352 470.85352 C 311.67486 470.85352 302.25111 468.96877 294.58203 465.19922 C 287.04294 461.55966 280.54333 456.36075 275.08398 449.60156 L 289.31641 435.75781 C 293.21594 440.56724 298.09211 444.33673 303.94141 447.06641 C 309.92069 449.79608 316.22431 451.16016 322.85352 451.16016 C 326.88303 451.16016 330.71786 450.57611 334.35742 449.40625 C 338.12697 448.36637 341.44112 446.67566 344.30078 444.33594 C 347.16044 441.99622 349.36987 439.00675 350.92969 435.36719 C 352.61948 431.72762 353.46484 427.43941 353.46484 422.5 L 353.46484 409.63086 C 350.08525 415.48016 345.33974 420.02969 339.23047 423.2793 C 333.1212 426.39892 326.55822 427.95898 319.53906 427.95898 C 312.64989 427.95898 306.40964 426.59295 300.82031 423.86328 C 295.23098 421.13361 290.35677 417.42944 286.19727 412.75 C 282.16775 407.94058 279.04763 402.41699 276.83789 396.17773 C 274.62816 389.93848 273.52344 383.30822 273.52344 376.28906 C 273.52344 368.87995 274.69348 361.99228 277.0332 355.62305 C 279.37292 349.25381 282.6237 343.66294 286.7832 338.85352 C 290.9427 334.04409 295.94562 330.27459 301.79492 327.54492 C 307.64422 324.81525 314.0785 323.45117 321.09766 323.45117 z M 444.47266 323.45117 C 459.16089 323.45117 470.53472 327.09001 478.59375 334.36914 C 486.78277 341.51828 490.87695 351.91804 490.87695 365.56641 L 490.87695 397.34766 C 490.87695 400.07733 491.3323 402.02741 492.24219 403.19727 C 493.28206 404.36713 494.90745 405.0165 497.11719 405.14648 L 497.11719 427.37305 C 492.69772 428.28294 488.86289 428.73828 485.61328 428.73828 C 480.67387 428.73828 476.83905 427.63356 474.10938 425.42383 C 471.50969 423.21409 469.8843 420.28995 469.23438 416.65039 L 468.65039 410.99609 C 464.10094 416.97538 458.57539 421.52491 452.07617 424.64453 C 445.57695 427.76416 438.62395 429.32422 431.21484 429.32422 C 426.27544 429.32422 421.66058 428.54419 417.37109 426.98438 C 413.08161 425.29458 409.37744 423.01981 406.25781 420.16016 C 403.13819 417.17052 400.66744 413.7257 398.84766 409.82617 C 397.15786 405.92664 396.31445 401.63647 396.31445 396.95703 C 396.31445 392.14761 397.35384 387.72874 399.43359 383.69922 C 401.64333 379.53972 404.6328 376.02958 408.40234 373.16992 C 412.30188 370.31027 416.91673 368.10083 422.24609 366.54102 C 427.57545 364.85122 433.42373 364.00586 439.79297 364.00586 C 444.34242 364.00586 448.76325 364.39587 453.05273 365.17578 C 457.4722 365.95569 461.37041 367.06041 464.75 368.49023 L 464.75 362.64062 C 464.75 355.88144 462.79992 350.68253 458.90039 347.04297 C 455.13084 343.40341 449.4766 341.58398 441.9375 341.58398 C 436.47816 341.58398 431.15055 342.55805 425.95117 344.50781 C 420.7518 346.45758 415.42224 349.31834 409.96289 353.08789 L 401.96875 336.51367 C 415.09717 327.80472 429.26448 323.45117 444.47266 323.45117 z M 209.84375 342.36328 C 206.33417 342.36328 203.01806 343.01266 199.89844 344.3125 C 196.9088 345.48236 194.24402 347.17308 191.9043 349.38281 C 189.56458 351.59255 187.61645 354.25733 186.05664 357.37695 C 184.62681 360.49658 183.78145 363.94139 183.52148 367.71094 L 236.55469 367.71094 C 235.90477 360.04186 233.04595 353.93227 227.97656 349.38281 C 223.03716 344.70337 216.99289 342.36328 209.84375 342.36328 z M 326.75195 345.67773 C 322.72244 345.67773 319.08359 346.58842 315.83398 348.4082 C 312.58437 350.098 309.78894 352.43809 307.44922 355.42773 C 305.1095 358.28739 303.29008 361.60155 301.99023 365.37109 C 300.82037 369.14064 300.23633 373.0408 300.23633 377.07031 C 300.23633 381.22981 300.95103 385.12801 302.38086 388.76758 C 303.81069 392.40714 305.76077 395.59259 308.23047 398.32227 C 310.83016 401.05194 313.81962 403.19605 317.19922 404.75586 C 320.57881 406.31567 324.28298 407.0957 328.3125 407.0957 C 331.17216 407.0957 333.90227 406.64036 336.50195 405.73047 C 339.10164 404.82058 341.50706 403.58716 343.7168 402.02734 C 345.92653 400.46753 347.87466 398.64616 349.56445 396.56641 C 351.25425 394.48666 352.55495 392.27722 353.46484 389.9375 L 353.46484 365.56641 C 351.12512 359.58712 347.42095 354.77628 342.35156 351.13672 C 337.41216 347.49716 332.2113 345.67773 326.75195 345.67773 z M 444.08398 378.62891 C 437.3248 378.62891 431.79925 380.18897 427.50977 383.30859 C 423.22028 386.29823 421.07617 390.13306 421.07617 394.8125 C 421.07617 399.23197 422.76494 402.93614 426.14453 405.92578 C 429.52413 408.78544 433.68364 410.21484 438.62305 410.21484 C 443.04252 410.21484 447.20203 409.43481 451.10156 407.875 C 455.13108 406.31519 458.2512 404.23641 460.46094 401.63672 C 463.32059 399.42698 464.75 396.95623 464.75 394.22656 L 464.75 382.5293 C 461.63037 381.35944 458.25089 380.44875 454.61133 379.79883 C 450.97176 379.01892 447.46358 378.62891 444.08398 378.62891 z "
       transform="matrix(0.26458333,0,0,0.26458333,0,157.01498)"
       id="rect64" />
    <g
       aria-label="i"
       transform="matrix(1.0570694,-0.10319444,0.11671478,0.93461762,0,0)"
       style="font-style:normal;font-variant:normal;font-weight:normal;font-stretch:normal;font-size:68.15313721px;line-height:1.25;font-family:'Source Sans Pro';-inkscape-font-specification:'Source Sans Pro, Normal';font-variant-ligatures:normal;font-variant-caps:normal;font-variant-numeric:normal;font-feature-settings:normal;text-align:start;letter-spacing:0px;word-spacing:0px;writing-mode:lr-tb;text-anchor:start;fill:#000000;fill-opacity:1;stroke:none;stroke-width:2.83971429"
       id="text5031" />
    <g
       aria-label="IMG"
       style="font-style:normal;font-variant:normal;font-weight:normal;font-stretch:normal;font-size:311.62454224px;line-height:1.25;font-family:'Source Sans Pro';-inkscape-font-specification:'Source Sans Pro, Normal';font-variant-ligatures:normal;font-variant-caps:normal;font-variant-numeric:normal;font-feature-settings:normal;text-align:start;letter-spacing:0px;word-spacing:0px;writing-mode:lr-tb;text-anchor:start;fill:#000000;fill-opacity:1;stroke:none;stroke-width:12.98435402"
       id="text11" />
    <g
       aria-label="Channel"
       style="font-style:normal;font-variant:normal;font-weight:normal;font-stretch:normal;font-size:311.62454224px;line-height:1.25;font-family:'Source Sans Pro';-inkscape-font-specification:'Source Sans Pro, Normal';font-variant-ligatures:normal;font-variant-caps:normal;font-variant-numeric:normal;font-feature-settings:normal;text-align:start;letter-spacing:0px;word-spacing:0px;writing-mode:lr-tb;text-anchor:start;fill:#000000;fill-opacity:1;stroke:none;stroke-width:12.98435402"
       id="text15" />
  </g>
</svg>
